<svg width="768" height="605" viewBox="0 0 768 605" fill="none" xmlns="http://www.w3.org/2000/svg">
<path d="M508.77 5.93001C527.52 6.72001 544.79 9.70001 560.58 14.86C572.43 18.74 583.16 23.79 592.77 30.01C615.29 44.6 631.36 64.45 640.97 89.56C641.098 89.8974 641.111 90.2675 641.006 90.6118C640.901 90.956 640.684 91.2545 640.39 91.46L570.21 140.31C569.59 139.41 569.33 138.78 569.42 138.42C563.06 126.04 553.71 116.52 541.38 109.86C534.36 106.07 526.64 103.36 518.21 101.71C514.9 101.06 512.26 101.15 509.2 100.58C507.39 100.24 505.12 100.07 502.41 100.07C482.15 100.09 461.33 106.45 447.73 121.66C442.71 127.27 439.67 134.04 438.6 141.96C436.22 159.65 449.36 171.42 463.13 179.03C471.6 183.71 479.2 187.55 485.95 190.54C516.4 204.07 539.57 214.17 566.01 228.96C589.27 241.97 610.49 257.07 628.05 276.7C641.28 291.48 650.47 308.6 655.63 328.07L656.45 330.24L657.37 335.46C657.385 335.514 657.418 335.561 657.464 335.593C657.51 335.625 657.566 335.64 657.622 335.635C657.677 335.63 657.73 335.606 657.77 335.567C657.809 335.528 657.834 335.476 657.84 335.42V172.17C657.84 171.833 657.974 171.51 658.212 171.272C658.45 171.034 658.773 170.9 659.11 170.9H752.03C752.149 170.9 752.274 170.883 752.4 170.85C752.95 170.7 753.46 170.65 753.93 170.68L754.19 495.08C754.19 495.316 754.096 495.542 753.929 495.709C753.762 495.876 753.536 495.97 753.3 495.97L657.67 496L658.03 390.01C658.03 389.938 658.002 389.87 657.951 389.819C657.9 389.768 657.832 389.74 657.76 389.74H657.38C657.274 389.74 657.172 389.782 657.097 389.857C657.022 389.932 656.98 390.034 656.98 390.14L656.88 395.72C656.42 395.5 656.06 396.07 655.8 397.44C650.29 418.03 640.6 436.43 626.75 452.63L616.81 462.7C612.67 465.38 608.63 469.24 605.26 471.62C597.52 477.07 589.69 481.7 581.77 485.51C569.14 491.6 555.88 496.25 542 499.46C529.73 502.3 518.6 504.07 508.61 504.78C501.07 505.31 494.2 505.64 488 505.78C482.75 505.9 475.34 505.64 465.76 504.99C435.15 502.92 404.78 494.62 378.51 479C360.86 468.51 345.77 455.18 333.24 439C327.31 431.33 321.91 423.19 317.05 414.58C316.9 414.313 316.834 414.006 316.86 413.7L316.91 413.24C317.17 412.95 317.46 412.73 317.79 412.58L318.08 412.61C318.248 412.629 318.418 412.587 318.56 412.49L393.22 359.89C393.254 359.866 393.293 359.849 393.335 359.841C393.376 359.832 393.418 359.832 393.459 359.841C393.5 359.849 393.539 359.866 393.574 359.89C393.608 359.914 393.638 359.944 393.66 359.98C398.51 367.53 404.16 374.91 410.31 380.94C423.86 394.21 440.67 402.79 460.76 406.67C469.1 408.28 476.57 408.88 483.18 408.48C485.86 409.03 488.5 409.01 491.09 408.42C495.49 409.27 499.82 409.14 504.09 408.01C504.68 407.85 505.33 407.74 506.04 407.67C513 407 520.11 405.52 527.38 403.21C546.31 397.21 565.84 382.57 562.56 359.92C560.08 342.7 543.89 328.34 530.63 318.88C522.36 312.98 513.1 307.15 502.87 301.39C492.57 295.59 473.51 285.8 445.68 272.01C435.52 266.97 423.51 260.56 414.32 255.2C404.23 249.31 394.83 242.87 386.13 235.9C371.08 223.83 359.76 209.68 352.17 193.45C351.93 192.94 351.77 192.62 351.68 192.47C351.649 192.418 351.603 192.377 351.548 192.352C351.493 192.327 351.432 192.318 351.371 192.328C351.311 192.337 351.254 192.364 351.208 192.406C351.161 192.447 351.127 192.5 351.11 192.56C350.56 194.66 350.23 196.59 350.11 198.36C350.04 199.49 349.75 201.42 349.25 204.14C344.01 232.74 331.87 258.14 312.83 280.35C310.02 283.62 307.36 286.58 304.87 289.22C303.04 291.16 301.54 292.59 300.37 293.51C296.35 296.69 292.7 300.42 288.53 303.57C262.3 323.46 232.7 335.13 199.74 338.6C196.02 338.99 192.53 338.95 188.62 338.99C175.04 339.12 149.27 339.17 111.3 339.12C111.206 339.119 111.113 339.136 111.025 339.171C110.938 339.206 110.858 339.258 110.791 339.324C110.724 339.39 110.671 339.469 110.635 339.556C110.599 339.643 110.58 339.736 110.58 339.83V494.33C110.58 494.606 110.47 494.87 110.275 495.065C110.08 495.26 109.816 495.37 109.54 495.37H15.58C15.4023 495.37 15.2319 495.299 15.1062 495.174C14.9806 495.048 14.91 494.878 14.91 494.7C14.9 282.21 14.9 125.15 14.9 23.5C14.9 20.71 14.61 18.21 14.04 16.02L192.09 16.03C195.28 16.81 198.6 17.01 202.05 16.62C202.24 16.6 202.46 16.62 202.71 16.69C202.6 16.68 202.51 16.71 202.45 16.77C202.433 16.7869 202.421 16.808 202.416 16.8312C202.41 16.8543 202.411 16.8786 202.418 16.9013C202.425 16.924 202.439 16.9443 202.457 16.9599C202.475 16.9756 202.497 16.986 202.52 16.99C205.87 17.58 208.99 18.08 211.9 18.48C214.21 18.8 217.29 19.4 221.13 20.27C241.24 24.84 259.94 32.76 277.23 44.04C305.96 62.79 326.91 87.99 340.1 119.63C340.99 121.75 341.33 123.35 342.31 125C342.334 125.042 342.368 125.077 342.41 125.102C342.452 125.126 342.499 125.14 342.547 125.141C342.596 125.142 342.643 125.13 342.686 125.107C342.728 125.084 342.764 125.051 342.79 125.01C342.94 124.76 342.81 124.42 342.4 124.01C342.97 124.07 343.07 123.62 342.7 122.65C343.23 121.53 343.83 119.31 344.49 115.98C347.34 101.67 352.85 87.83 361.02 74.46C372.69 55.34 390.09 39.57 409.45 28.71C423.28 20.96 437.21 15.37 451.26 11.94C458.38 10.2 466.91 8.52001 476.85 6.89001C477.39 6.68001 478.02 6.60001 478.74 6.67001L490.61 6.04001C496.58 4.82001 502.63 4.78001 508.77 5.93001ZM506.72 5.72001H506.31C506.292 5.72082 506.275 5.72554 506.259 5.73377C506.244 5.74199 506.231 5.75348 506.221 5.76723C506.211 5.78099 506.205 5.79662 506.203 5.81278C506.201 5.82893 506.203 5.84514 506.21 5.86001C506.28 6.04001 506.47 6.05001 506.76 5.88001C506.784 5.87445 506.805 5.8607 506.818 5.84176C506.831 5.82283 506.836 5.80028 506.83 5.77906C506.825 5.75784 506.81 5.7397 506.79 5.72863C506.769 5.71755 506.744 5.71445 506.72 5.72001ZM111 111.98V243.04C111 243.205 111.065 243.364 111.181 243.482C111.297 243.6 111.455 243.667 111.62 243.67C137.78 244.17 163.97 244.19 190.18 243.72C205.91 242.65 219.8 236.97 231.87 226.66L240.06 218.09C248.07 209.06 252.98 198.49 254.81 186.38C254.97 185.32 255.03 184.48 255 183.87C254.88 181.74 255.43 179.53 255.41 177.6C255.24 160.89 249.49 146.58 238.15 134.68C237.08 134.11 236.15 133.23 235.35 132.05C235.48 131.4 235.06 131.05 234.09 131.01C233.95 130.58 233.61 130.13 233.07 129.67C222.05 120.26 209.35 114.51 194.96 112.42C189.09 111.57 184.6 111.14 181.5 111.14C157.73 111.11 134.32 111.08 111.25 111.05C111.162 111.05 111.074 111.068 110.993 111.103C110.912 111.137 110.839 111.188 110.779 111.252C110.719 111.316 110.673 111.391 110.644 111.474C110.615 111.556 110.603 111.643 110.61 111.73C110.64 112.16 110.77 112.24 111 111.98Z" fill="#231F20"/>
<path d="M753.12 15H657.86C657.374 15 656.98 15.394 656.98 15.88V109.12C656.98 109.606 657.374 110 657.86 110H753.12C753.606 110 754 109.606 754 109.12V15.88C754 15.394 753.606 15 753.12 15Z" fill="#F14C32"/>
<path d="M193.47 525.3C193.3 525.57 193.32 525.94 193.55 526.43C203.76 548.24 213.93 570.06 224.07 591.91C224.32 592.44 224.61 592.72 224.94 592.74C225.49 593.55 225.79 594.36 225.84 595.18C225.848 595.297 225.832 595.414 225.793 595.524C225.754 595.634 225.693 595.735 225.613 595.82C225.534 595.906 225.437 595.974 225.33 596.02C225.223 596.067 225.107 596.09 224.99 596.09H211.02C210.856 596.09 210.695 596.048 210.552 595.967C210.41 595.887 210.292 595.77 210.21 595.63C209.72 594.81 209.43 594.03 209.33 593.29L206.91 587.21C206.783 586.888 206.561 586.611 206.274 586.415C205.988 586.219 205.648 586.113 205.3 586.11C196.51 586.03 188.01 586.04 179.8 586.14C177.63 586.17 176.5 587.49 176.4 590.12L174.02 595.33C173.928 595.53 173.78 595.699 173.594 595.818C173.408 595.937 173.192 596 172.97 596H158.5C158.392 596.001 158.286 595.974 158.192 595.922C158.098 595.87 158.018 595.795 157.96 595.703C157.902 595.611 157.868 595.506 157.861 595.397C157.854 595.288 157.875 595.179 157.92 595.08L191.5 523.09C191.533 523.018 191.584 522.956 191.647 522.909C191.711 522.861 191.785 522.83 191.863 522.819C191.941 522.807 192.021 522.814 192.095 522.841C192.17 522.867 192.237 522.912 192.29 522.97C192.89 523.63 193.28 524.41 193.47 525.3ZM184.24 573.14C184.195 573.24 184.176 573.35 184.184 573.46C184.192 573.57 184.228 573.675 184.288 573.768C184.347 573.86 184.429 573.936 184.525 573.989C184.622 574.042 184.73 574.07 184.84 574.07H199.3C199.41 574.07 199.518 574.042 199.615 573.989C199.711 573.936 199.793 573.86 199.852 573.768C199.912 573.675 199.948 573.57 199.956 573.46C199.964 573.35 199.945 573.24 199.9 573.14L192.67 557.1C192.617 556.985 192.533 556.888 192.426 556.82C192.32 556.751 192.196 556.715 192.07 556.715C191.944 556.715 191.82 556.751 191.714 556.82C191.607 556.888 191.523 556.985 191.47 557.1L184.24 573.14Z" fill="#F14C32"/>
<path d="M349.31 545.45C349.85 547.42 351.24 548.67 353.47 549.22C356.93 550.85 360.44 552.45 364 554.04C371.06 557.2 380.41 563.57 381.6 571.73C382.49 577.76 381.61 582.91 378.97 587.18C374.37 594.6 366.59 597.29 357.66 597.98C353.35 598.32 348.92 597.67 344.35 596.02C339.05 594.11 334.59 590.44 330.98 585C330.777 584.695 330.701 584.323 330.768 583.964C330.836 583.605 331.041 583.287 331.34 583.08L341.36 576.02C341.501 575.918 341.673 575.868 341.846 575.877C342.019 575.886 342.183 575.954 342.31 576.07C342.51 576.26 343.75 577.39 346.02 579.47C350.32 583.41 357.45 583.56 362.83 581.47C365.12 580.57 366.43 579.42 366.76 578.02C367.78 573.64 362.46 569.9 358.91 568.07C351.26 564.13 345.07 561.38 339.39 556.35C334.09 551.66 332.79 544.31 335.29 537.55C337.7 531.04 342.34 526.68 349.23 524.47C356.6 522.1 363.53 522.5 370 525.65C373.91 527.56 376.88 530.59 378.93 534.75C379.122 535.144 379.169 535.593 379.061 536.016C378.953 536.44 378.697 536.81 378.34 537.06L369.11 543.57C368.98 543.659 368.82 543.693 368.664 543.665C368.509 543.637 368.371 543.549 368.28 543.42C365.11 538.81 360.73 537.14 355.15 538.4C351.95 539.12 348.53 541.85 349.31 545.45Z" fill="#F14C32"/>
<path d="M705.9 582.78C708.87 581.48 711.46 579.65 713.67 577.29C715.32 575.7 716.51 575.63 717.24 577.1C719.17 580.61 722.35 582.45 726.76 582.62C730.82 583.24 738.79 582.49 740.56 578.14C741.25 576.43 740.76 574.63 739.1 572.74C736.95 570.28 732.99 567.97 729.84 566.43C723.35 563.24 718.67 560.67 715.81 558.7C708.33 553.56 706.11 544.52 709.59 536.04C711.59 531.18 715.25 527.62 720.57 525.35C732.58 520.23 747.01 523.09 753.17 535.21C753.286 535.44 753.316 535.704 753.254 535.953C753.191 536.203 753.041 536.422 752.83 536.57L742.93 543.55C742.808 543.636 742.658 543.676 742.508 543.661C742.357 543.647 742.216 543.579 742.11 543.47C741.26 542.6 740.64 541.94 740.25 541.51C735.53 536.27 725.38 536.4 723 544.04C722.908 544.33 722.888 544.639 722.942 544.938C722.996 545.238 723.122 545.52 723.31 545.76C724.51 547.29 726.04 548.51 727.9 549.41C734 552.36 741.06 554.93 746.97 559.58C753.65 564.83 757.37 571.67 755.65 580.16C754.88 583.97 753.27 587.22 750.82 589.91C745.28 595.99 739.74 597.01 731.27 598.07C729.1 598.34 726.66 598.18 723.97 597.57C715.93 595.74 709.4 592.73 705.26 585.56C705.034 585.172 704.949 584.716 705.02 584.27C705.15 583.46 705.45 582.97 705.9 582.78Z" fill="#F14C32"/>
<path d="M638.68 545.87C635.96 543.75 631.88 540.36 627.7 539.48C625.79 539.08 623.48 538.89 620.78 538.92C611.98 539.02 603.73 546.29 601.08 554.33C599.61 558.78 599.78 563.34 601.59 568.01C604.11 574.49 608.66 578.97 615.25 581.44C624.66 584.98 631.56 580.74 638.63 575.06C638.699 575.005 638.779 574.965 638.864 574.942C638.95 574.919 639.039 574.914 639.127 574.928C639.215 574.941 639.3 574.972 639.376 575.018C639.452 575.065 639.518 575.127 639.57 575.2L646.66 585.26C646.946 585.666 647.071 586.163 647.012 586.656C646.953 587.149 646.714 587.603 646.34 587.93C642.11 591.65 638.01 594.33 634.02 595.98C630.55 597.41 623.9 598.37 619.53 597.85C607.29 596.39 597.8 590.7 591.07 580.77C586.64 574.25 584.79 567.46 585.01 559.39C585.46 543.04 596.48 529.75 611.84 524.74C623.5 520.94 634.79 523.64 645.71 532.83C647.03 533.94 647.17 535.19 646.12 536.57C642.63 541.16 640.43 544.21 639.5 545.72C639.459 545.787 639.404 545.845 639.339 545.889C639.274 545.934 639.201 545.964 639.123 545.978C639.046 545.992 638.967 545.99 638.89 545.971C638.814 545.953 638.742 545.918 638.68 545.87Z" fill="#F14C32"/>
<path d="M456.1 564.68C456.25 563.96 456.16 563.46 455.82 563.17C455.75 563.115 455.666 563.08 455.578 563.07C455.49 563.059 455.4 563.074 455.321 563.112C455.241 563.149 455.174 563.209 455.128 563.283C455.082 563.357 455.058 563.443 455.06 563.53L455.08 595.89L441.37 595.87C441.272 595.87 441.178 595.83 441.108 595.759C441.039 595.687 441 595.591 441 595.49V525.97C441 525.7 441.106 525.441 441.295 525.249C441.483 525.056 441.74 524.945 442.01 524.94C450.17 524.81 458.42 524.84 466.75 525.05C471.54 525.17 475.95 526.93 479.97 530.32C485.1 534.65 489.34 542.43 488.73 549.07C487.94 557.7 484.08 563.08 476.53 567.91C476.468 567.95 476.414 568.002 476.372 568.063C476.33 568.124 476.3 568.192 476.285 568.264C476.27 568.336 476.27 568.41 476.285 568.481C476.299 568.553 476.328 568.62 476.37 568.68L495.01 595.14C495.044 595.185 495.067 595.237 495.078 595.292C495.089 595.347 495.088 595.404 495.075 595.458C495.061 595.513 495.036 595.563 495.001 595.607C494.965 595.651 494.921 595.686 494.87 595.71C494.39 595.94 493.68 596.07 492.75 596.1C488.49 596.21 483.72 596.18 478.43 596C478.058 595.987 477.694 595.888 477.369 595.709C477.044 595.53 476.767 595.276 476.56 594.97L456.1 564.68ZM456 556.78C460.31 557.38 464.5 557.11 468.59 555.98C474.17 552.73 475.21 548.31 471.7 542.72C470.93 542.49 470.16 541.86 469.38 540.83C468.71 540.1 467.83 539.65 466.73 539.5C463.31 539.03 459.77 538.86 456.12 539C455.84 539.01 455.575 539.131 455.382 539.337C455.189 539.543 455.084 539.817 455.09 540.1C455.21 545.14 455.18 550.27 454.99 555.49C454.95 556.52 455.29 556.95 456 556.78Z" fill="#F14C32"/>
<path d="M554.14 525.04C554.259 525.042 554.376 525.074 554.48 525.133C554.584 525.192 554.672 525.276 554.735 525.377C554.799 525.478 554.836 525.594 554.844 525.713C554.852 525.832 554.83 525.951 554.78 526.06L522.08 597.73C522.009 597.885 521.895 598.017 521.752 598.11C521.608 598.202 521.441 598.251 521.27 598.251C521.099 598.251 520.932 598.202 520.788 598.11C520.645 598.017 520.531 597.885 520.46 597.73L487.98 526.22C487.918 526.081 487.892 525.929 487.903 525.778C487.914 525.626 487.963 525.48 488.044 525.353C488.126 525.226 488.238 525.121 488.37 525.049C488.502 524.977 488.65 524.939 488.8 524.94H502.84C503.028 524.94 503.212 524.994 503.37 525.097C503.528 525.2 503.653 525.347 503.73 525.52L520.81 564.5C520.86 564.611 520.944 564.703 521.049 564.762C521.155 564.822 521.277 564.846 521.398 564.832C521.518 564.817 521.631 564.765 521.72 564.682C521.808 564.599 521.868 564.489 521.89 564.37L522.14 563.02C522.14 563 522.143 562.983 522.15 562.97L538.62 525.95C538.64 525.91 538.663 525.873 538.69 525.84C539.3 525.14 540.43 524.8 542.08 524.82C546.59 524.88 550.61 524.95 554.14 525.04Z" fill="#F14C32"/>
<path d="M574.943 524.951L562.123 524.929C561.526 524.928 561.042 525.411 561.041 526.007L560.919 595.927C560.918 596.523 561.401 597.008 561.997 597.009L574.817 597.031C575.414 597.032 575.898 596.549 575.899 595.953L576.021 526.033C576.022 525.437 575.539 524.952 574.943 524.951Z" fill="#F14C32"/>
<path d="M14.49 596.06L14.71 525.84C14.7102 525.788 14.6925 525.738 14.66 525.7C14.54 525.54 14.37 525.5 14.16 525.59C13.99 525.53 14.04 525.39 14.32 525.16C14.4303 525.075 14.5664 525.027 14.71 525.02C28.69 524.97 36.82 524.59 42.49 525.29C44.02 525.48 45.31 525.77 46.38 526.17C54.7 529.29 59.73 534.87 61.48 542.92C63.73 553.31 60.04 562.09 50.91 567.36C50.7418 567.458 50.5957 567.589 50.4811 567.746C50.3666 567.904 50.286 568.083 50.2446 568.273C50.2032 568.463 50.2019 568.66 50.2407 568.85C50.2795 569.041 50.3576 569.221 50.47 569.38L69.13 595.87C69.1459 595.895 69.1548 595.925 69.1557 595.955C69.1567 595.985 69.1497 596.014 69.1355 596.041C69.1213 596.067 69.1003 596.089 69.0748 596.105C69.0492 596.121 69.02 596.129 68.99 596.13H52.47C52.0543 596.13 51.6441 596.029 51.2747 595.833C50.9054 595.638 50.588 595.356 50.35 595.01L29.54 564.35C29.5015 564.297 29.4475 564.258 29.3856 564.238C29.3237 564.218 29.2571 564.218 29.1951 564.238C29.1332 564.258 29.0791 564.297 29.0404 564.349C29.0018 564.402 28.9807 564.465 28.98 564.53V595.47C28.98 595.6 28.9284 595.725 28.8365 595.816C28.7446 595.908 28.62 595.96 28.49 595.96L14.49 596.06ZM28.89 540.13L29.15 556.39C29.1513 556.475 29.1695 556.559 29.2034 556.637C29.2374 556.714 29.2866 556.785 29.348 556.843C29.4094 556.902 29.4819 556.948 29.5612 556.978C29.6406 557.008 29.7251 557.023 29.81 557.02L40.04 556.71C40.317 556.697 40.5858 556.629 40.83 556.51C46.25 553.84 47.95 549.8 45.92 544.37C44.77 541.4 42.46 539.72 38.99 539.31C36.08 538.98 33.17 538.88 30.25 539.01C28.81 539.08 28.36 539.45 28.89 540.13Z" fill="#F14C32"/>
<path d="M114.95 537C114.78 538.49 114.28 539.22 113.45 539.21C104.47 539.12 95.61 539.1 86.86 539.13C86.7497 539.13 86.6406 539.152 86.5391 539.195C86.4376 539.237 86.3458 539.299 86.2693 539.378C86.1927 539.456 86.133 539.549 86.0936 539.651C86.0542 539.753 86.036 539.861 86.04 539.97L86.52 553.04L110.4 553.05C110.535 553.05 110.665 553.104 110.761 553.199C110.856 553.295 110.91 553.425 110.91 553.56L110.97 567.56L87.13 567.07C86.997 567.067 86.8648 567.091 86.7412 567.14C86.6175 567.189 86.5049 567.263 86.4099 567.356C86.3149 567.449 86.2395 567.56 86.188 567.683C86.1365 567.805 86.11 567.937 86.11 568.07V581.28C86.1098 581.34 86.1222 581.4 86.1467 581.456C86.1711 581.511 86.2069 581.561 86.252 581.602C86.297 581.643 86.3503 581.675 86.4084 581.695C86.4666 581.716 86.5284 581.724 86.59 581.72C86.87 581.7 87.01 581.65 87.01 581.58L113.73 581.55C114.067 581.55 114.39 581.683 114.628 581.919C114.866 582.155 115 582.476 115 582.81V595.41C115 595.569 114.936 595.722 114.821 595.834C114.707 595.947 114.552 596.01 114.39 596.01H72.5C72.3674 596.01 72.2402 595.957 72.1464 595.864C72.0527 595.77 72 595.643 72 595.51V525.83C72 525.721 72.0212 525.613 72.0624 525.512C72.1036 525.412 72.164 525.32 72.2402 525.243C72.3163 525.166 72.4067 525.105 72.5062 525.063C72.6057 525.021 72.7123 525 72.82 525H114.28C114.46 525 114.633 525.072 114.761 525.199C114.888 525.327 114.96 525.5 114.96 525.68L114.95 537Z" fill="#F14C32"/>
<path d="M170.52 524.99L170.13 538.05C170.122 538.348 169.996 538.631 169.779 538.837C169.561 539.043 169.271 539.155 168.97 539.15C164.4 539.07 159.75 539.02 155.04 539.01C154.47 539 153.94 539.06 153.47 539.17C152.5 539.4 152.33 539.67 152.97 539.98L152.93 595.28C152.93 595.474 152.852 595.659 152.713 595.796C152.574 595.933 152.386 596.01 152.19 596.01H138.64C138.552 596.01 138.464 595.992 138.383 595.957C138.302 595.922 138.229 595.87 138.169 595.805C138.109 595.74 138.063 595.664 138.034 595.58C138.005 595.497 137.993 595.408 138 595.32C138 595.23 138.01 595.14 138.04 595.04C138.13 595.03 138.23 595.02 138.32 595C138.448 594.969 138.562 594.896 138.643 594.792C138.725 594.689 138.769 594.562 138.77 594.43V540.23C138.77 540.077 138.739 539.926 138.68 539.785C138.62 539.644 138.533 539.517 138.423 539.41C138.313 539.303 138.183 539.218 138.04 539.162C137.897 539.105 137.744 539.077 137.59 539.08L120.91 539.47L121.08 525.9C121.085 525.665 121.181 525.441 121.348 525.277C121.514 525.112 121.737 525.02 121.97 525.02L170.52 524.99Z" fill="#F14C32"/>
<path d="M243.88 524.99H231.16C230.53 524.99 230.02 525.5 230.02 526.13V595.83C230.02 596.46 230.53 596.97 231.16 596.97H243.88C244.51 596.97 245.02 596.46 245.02 595.83V526.13C245.02 525.5 244.51 524.99 243.88 524.99Z" fill="#F14C32"/>
<path d="M271.65 525.09L271.16 581.28C271.157 581.397 271.199 581.511 271.277 581.598C271.355 581.686 271.463 581.74 271.58 581.75C272.13 581.8 272.19 581.77 271.76 581.64H299.39C299.552 581.64 299.707 581.705 299.821 581.822C299.936 581.938 300 582.096 300 582.26V595.4C300 595.559 299.937 595.712 299.824 595.824C299.712 595.937 299.559 596 299.4 596H257.33C257.24 596 257.153 595.964 257.09 595.9C257.026 595.837 256.99 595.75 256.99 595.66V525.74C256.99 525.58 257.053 525.426 257.165 525.312C257.277 525.198 257.43 525.133 257.59 525.13L271.65 525.09Z" fill="#F14C32"/>
<path d="M430.54 525.01L430.15 537.86C430.14 538.207 429.993 538.537 429.743 538.778C429.493 539.019 429.158 539.153 428.81 539.15C420.36 539.12 411.77 539.13 403.06 539.18C402.89 539.18 402.77 539.22 402.68 539.29C402.57 539.38 402.5 539.5 402.46 539.65C402.15 539.64 402 539.76 402.01 540C402.03 544.25 402.02 548.49 401.99 552.7C401.989 552.743 401.996 552.785 402.012 552.825C402.028 552.865 402.052 552.902 402.083 552.933C402.114 552.963 402.151 552.988 402.191 553.005C402.232 553.021 402.276 553.03 402.32 553.03L426.68 553.01C426.03 557.28 425.92 561.42 426.35 565.41C426.373 565.624 426.35 565.841 426.283 566.046C426.216 566.251 426.107 566.439 425.962 566.598C425.817 566.757 425.64 566.883 425.444 566.968C425.247 567.052 425.034 567.094 424.82 567.09C417.45 566.98 410.06 566.95 402.66 566.98C402.513 566.982 402.367 567.014 402.233 567.075C402.1 567.136 401.982 567.224 401.888 567.333C401.793 567.441 401.725 567.568 401.687 567.704C401.65 567.84 401.644 567.982 401.67 568.12C401.68 568.2 401.8 568.26 402.01 568.29L402.15 581.07C402.153 581.211 402.211 581.346 402.312 581.445C402.413 581.544 402.548 581.6 402.69 581.6H429.19C429.497 581.6 429.799 581.687 430.06 581.85L430.52 582.14C430.49 582.15 430.45 582.17 430.42 582.18C430.39 582.188 430.364 582.206 430.344 582.231C430.324 582.256 430.312 582.287 430.31 582.32C429.9 586.86 429.99 591.43 430.6 596.02L387.73 596.03L387.8 525.07L430.54 525.01Z" fill="#F14C32"/>
<path d="M697.96 538.05C696.64 539.65 695.54 539.16 693.82 539.16C685.79 539.14 677.84 539.12 669.96 539.11C669.837 539.11 669.715 539.135 669.601 539.183C669.487 539.231 669.384 539.301 669.299 539.39C669.213 539.479 669.146 539.584 669.101 539.699C669.057 539.814 669.036 539.937 669.04 540.06L669.56 553.03L693.41 553.05C693.546 553.053 693.676 553.108 693.771 553.203C693.866 553.298 693.92 553.426 693.92 553.56L694.02 567.52L670.4 567.01C670.229 567.006 670.059 567.036 669.9 567.1C669.742 567.164 669.598 567.259 669.478 567.38C669.358 567.501 669.264 567.645 669.203 567.803C669.141 567.961 669.113 568.13 669.12 568.3L669.63 581.62L696.87 581.56C697.17 581.56 697.457 581.678 697.669 581.888C697.881 582.098 698 582.383 698 582.68V595.3C698 595.486 697.926 595.664 697.795 595.795C697.664 595.926 697.486 596 697.3 596H655.71C655.53 596 655.357 595.928 655.229 595.801C655.102 595.673 655.03 595.5 655.03 595.32V526.05C655.03 525.912 655.057 525.776 655.109 525.648C655.161 525.521 655.238 525.405 655.335 525.308C655.431 525.21 655.546 525.133 655.672 525.08C655.798 525.027 655.933 525 656.07 525H697.11C697.341 525 697.562 525.092 697.725 525.255C697.888 525.418 697.98 525.639 697.98 525.87L697.96 538.05Z" fill="#F14C32"/>
<path d="M506.72 5.72C506.736 5.72384 506.751 5.73259 506.763 5.74513C506.775 5.75768 506.784 5.77348 506.788 5.79055C506.793 5.80762 506.792 5.82521 506.787 5.84112C506.782 5.85703 506.773 5.87055 506.76 5.88C506.47 6.05 506.28 6.04 506.21 5.86C506.203 5.84513 506.201 5.82893 506.203 5.81277C506.205 5.79661 506.211 5.78099 506.221 5.76723C506.231 5.75347 506.244 5.74199 506.259 5.73376C506.275 5.72554 506.292 5.72082 506.31 5.72H506.72Z" fill="#231F20"/>
<path d="M570.21 140.31L640.39 91.46C640.684 91.2545 640.901 90.956 641.006 90.6117C641.111 90.2675 641.098 89.8973 640.97 89.56C631.36 64.45 615.29 44.6 592.77 30.01C583.16 23.79 572.43 18.74 560.58 14.86C544.79 9.69999 527.52 6.71999 508.77 5.92999C527.36 6.03999 545.48 9.11999 563.13 15.17C581.2 21.37 598.97 31.43 612.45 44.74C625.46 57.59 635.17 72.44 641.57 89.27C641.745 89.7268 641.763 90.2286 641.622 90.6958C641.481 91.1631 641.188 91.5692 640.79 91.85L571.28 140.81C571.157 140.9 571.005 140.946 570.85 140.94C570.22 140.9 570.01 140.69 570.21 140.31Z" fill="#231F20"/>
<path d="M476.85 6.89001C466.91 8.52001 458.38 10.2 451.26 11.94C437.21 15.37 423.28 20.96 409.45 28.71C390.09 39.57 372.69 55.34 361.02 74.46C352.85 87.83 347.34 101.67 344.49 115.98C343.83 119.31 343.23 121.53 342.7 122.65C346.02 100.16 354.77 80 368.95 62.17C383.21 44.25 402.17 30.34 423.23 21.04C440.34 13.48 458.21 8.76001 476.85 6.89001Z" fill="#231F20"/>
<path d="M14.04 16.02C14.61 18.21 14.9 20.71 14.9 23.5C14.9 125.15 14.9 282.21 14.91 494.7C14.91 494.878 14.9806 495.048 15.1063 495.174C15.2319 495.299 15.4023 495.37 15.58 495.37H109.54C109.816 495.37 110.08 495.26 110.275 495.065C110.47 494.87 110.58 494.606 110.58 494.33V339.83C110.58 339.736 110.599 339.643 110.635 339.556C110.671 339.469 110.724 339.39 110.791 339.324C110.858 339.258 110.938 339.206 111.025 339.171C111.113 339.136 111.206 339.119 111.3 339.12C149.27 339.17 175.04 339.12 188.62 338.99C192.53 338.95 196.02 338.99 199.74 338.6C232.7 335.13 262.3 323.46 288.53 303.57C292.7 300.42 296.35 296.69 300.37 293.51C301.54 292.59 303.04 291.16 304.87 289.22C307.36 286.58 310.02 283.62 312.83 280.35C331.87 258.14 344.01 232.74 349.25 204.14C349.75 201.42 350.04 199.49 350.11 198.36C350.23 196.59 350.56 194.66 351.11 192.56C351.127 192.5 351.161 192.447 351.208 192.406C351.254 192.364 351.311 192.337 351.372 192.328C351.432 192.318 351.493 192.327 351.548 192.352C351.603 192.377 351.649 192.418 351.68 192.47C351.77 192.62 351.93 192.94 352.17 193.45C359.76 209.68 371.08 223.83 386.13 235.9C394.83 242.87 404.23 249.31 414.32 255.2C423.51 260.56 435.52 266.97 445.68 272.01C473.51 285.8 492.57 295.59 502.87 301.39C513.1 307.15 522.36 312.98 530.63 318.88C543.89 328.34 560.08 342.7 562.56 359.92C565.84 382.57 546.31 397.21 527.38 403.21C520.11 405.52 513 407 506.04 407.67C505.33 407.74 504.68 407.85 504.09 408.01C499.82 409.14 495.49 409.27 491.09 408.42C499.34 408.15 507.4 407.28 515.26 405.79C524.67 404.01 533.62 400.69 542.1 395.84C549.57 391.56 555.43 386.15 559.35 378.42C561.02 375.11 561.96 371.43 562.15 367.36C562.61 357.89 559.85 349.23 553.86 341.38C547.42 332.94 539.12 325.48 530.25 319.25C521.38 313.03 512.73 307.6 504.3 302.95C488.56 294.27 472.57 285.99 456.34 278.12C435.98 268.25 418.25 258.54 403.16 248.98C397.68 245.5 391.59 241.02 384.9 235.55C370.76 223.99 359.87 210.5 351.59 194.29C351.551 194.225 351.491 194.176 351.42 194.151C351.349 194.125 351.272 194.124 351.2 194.149C351.129 194.173 351.068 194.222 351.028 194.285C350.988 194.349 350.971 194.425 350.98 194.5C351.15 195.44 351.14 196.52 350.96 197.75C350.42 201.41 349.67 205.49 348.7 210C346.37 220.88 342.96 231.34 338.46 241.39C337.11 244.4 335.8 247.01 334.55 249.22C332.65 252.57 331.01 256.32 329 259.52C319.35 274.87 307.91 288.12 294.7 299.25C269.34 320.62 239.95 333.69 206.53 338.46C198.86 339.55 188.51 340.09 175.48 340.06C140.64 339.98 119.22 339.96 111.23 340.01C111.193 340.01 111.157 340.017 111.123 340.031C111.089 340.045 111.058 340.066 111.032 340.092C111.006 340.118 110.985 340.149 110.971 340.183C110.957 340.217 110.95 340.253 110.95 340.29V495.38C110.95 495.529 110.891 495.671 110.786 495.776C110.681 495.881 110.539 495.94 110.39 495.94H14.3C14.2258 495.94 14.1545 495.911 14.102 495.858C14.0495 495.805 14.02 495.734 14.02 495.66L14.04 16.02Z" fill="#231F20"/>
<path d="M202.05 16.62C198.6 17.01 195.28 16.81 192.09 16.03L202.05 16.62Z" fill="#231F20"/>
<path d="M202.71 16.69C203.51 16.68 205.11 16.85 207.51 17.21C234.72 21.29 259.16 30.76 280.83 45.62C285.52 48.83 290.01 52.29 294.28 55.99C300.52 61.38 306.42 66.72 311.72 72.92C314.76 76.47 316.51 78.54 316.97 79.14C324.4 88.75 330.28 97.74 334.63 106.13C336.82 110.36 339.41 116.32 342.4 124.01C342.81 124.42 342.94 124.76 342.79 125.01C342.764 125.051 342.728 125.084 342.686 125.107C342.643 125.13 342.596 125.142 342.547 125.141C342.499 125.14 342.452 125.126 342.41 125.102C342.368 125.077 342.334 125.042 342.31 125C341.33 123.35 340.99 121.75 340.1 119.63C326.91 87.99 305.96 62.79 277.23 44.04C259.94 32.76 241.24 24.84 221.13 20.27C217.29 19.4 214.21 18.8 211.9 18.48C208.99 18.08 205.87 17.58 202.52 16.99C202.497 16.986 202.475 16.9756 202.457 16.9599C202.439 16.9443 202.425 16.924 202.418 16.9013C202.411 16.8786 202.41 16.8543 202.416 16.8312C202.421 16.808 202.433 16.7869 202.45 16.77C202.51 16.71 202.6 16.68 202.71 16.69Z" fill="#231F20"/>
<path d="M569.42 138.42C556.1 116.27 536.52 103.88 510.68 101.27C498.47 100.04 486.56 101.26 474.94 104.94C458.62 110.12 442.38 123.06 439.36 140.79C437.19 153.54 442.99 164.25 453.4 171.91C459.68 176.52 465.81 180.28 471.8 183.19C481.06 187.69 493.82 193.53 510.09 200.72C515.45 203.09 524.86 207.42 538.31 213.72C542.28 215.58 545.46 217.17 547.85 218.5C552.15 220.89 554.79 222.33 555.78 222.82C563.05 226.47 571.61 231.36 581.48 237.51C605.31 252.36 628.43 271.69 641.99 294.52C647.12 303.16 651.25 312.19 654.38 321.62C655.09 323.75 655.51 325.9 655.63 328.07C650.47 308.6 641.28 291.48 628.05 276.7C610.49 257.07 589.27 241.97 566.01 228.96C539.57 214.17 516.4 204.07 485.95 190.54C479.2 187.55 471.6 183.71 463.13 179.03C449.36 171.42 436.22 159.65 438.6 141.96C439.67 134.04 442.71 127.27 447.73 121.66C461.33 106.45 482.15 100.09 502.41 100.07C505.12 100.07 507.39 100.24 509.2 100.58C512.26 101.15 514.9 101.06 518.21 101.71C526.64 103.36 534.36 106.07 541.38 109.86C553.71 116.52 563.06 126.04 569.42 138.42Z" fill="#231F20"/>
<path d="M234.09 131.01C223.69 121.85 211.87 115.98 198.63 113.4C193.56 112.41 184.61 111.94 171.78 111.97C151.51 112.02 131.25 112.03 111 111.98C110.77 112.24 110.64 112.16 110.61 111.73C110.603 111.643 110.615 111.556 110.644 111.474C110.673 111.391 110.719 111.316 110.779 111.252C110.839 111.188 110.912 111.137 110.993 111.102C111.074 111.068 111.162 111.05 111.25 111.05C134.32 111.08 157.73 111.11 181.5 111.14C184.6 111.14 189.09 111.57 194.96 112.42C209.35 114.51 222.05 120.26 233.07 129.67C233.61 130.13 233.95 130.58 234.09 131.01Z" fill="#231F20"/>
<path d="M235.35 132.05C234.91 131.81 234.49 131.46 234.09 131.01C235.06 131.05 235.48 131.4 235.35 132.05Z" fill="#231F20"/>
<path d="M240.06 218.09C245.77 210.77 249.65 203.9 251.7 197.47C256.43 182.62 256.08 168.34 250.64 154.61C248.06 148.09 243.9 141.45 238.15 134.68C249.49 146.58 255.24 160.89 255.41 177.6C255.43 179.53 254.88 181.74 255 183.87C255.03 184.48 254.97 185.32 254.81 186.38C252.98 198.49 248.07 209.06 240.06 218.09Z" fill="#231F20"/>
<path d="M753.93 170.68C753.46 170.65 752.95 170.7 752.4 170.85C752.274 170.883 752.149 170.9 752.03 170.9H659.11C658.773 170.9 658.45 171.034 658.212 171.272C657.974 171.51 657.84 171.833 657.84 172.17V335.42C657.834 335.476 657.809 335.528 657.77 335.567C657.73 335.606 657.677 335.63 657.622 335.635C657.566 335.64 657.51 335.625 657.464 335.593C657.418 335.561 657.385 335.514 657.37 335.46L656.45 330.24C656.8 327.99 656.98 324.49 656.99 319.75C657.07 252.94 657.06 208.52 656.97 186.5C656.94 181.17 656.98 175.86 657.09 170.58C657.095 170.435 657.155 170.298 657.258 170.197C657.361 170.096 657.498 170.04 657.64 170.04H753.46C753.542 170.04 753.622 170.063 753.69 170.105C753.759 170.148 753.815 170.208 753.85 170.28C753.92 170.42 753.94 170.55 753.93 170.68Z" fill="#231F20"/>
<path d="M231.87 226.66C219.8 236.97 205.91 242.65 190.18 243.72C193.03 243.2 195.88 242.67 198.73 242.12C208.06 240.32 218 236.57 225.21 231.2C228.11 229.03 230.33 227.52 231.87 226.66Z" fill="#231F20"/>
<path d="M483.18 408.48C476.57 408.88 469.1 408.28 460.76 406.67C440.67 402.79 423.86 394.21 410.31 380.94C404.16 374.91 398.51 367.53 393.66 359.98C393.638 359.944 393.608 359.914 393.574 359.89C393.539 359.866 393.5 359.849 393.459 359.841C393.418 359.832 393.376 359.832 393.335 359.841C393.293 359.849 393.254 359.866 393.22 359.89L318.56 412.49C318.418 412.587 318.248 412.629 318.08 412.61L317.79 412.58L393.17 359.31C393.238 359.262 393.315 359.229 393.397 359.212C393.478 359.195 393.562 359.195 393.644 359.212C393.725 359.229 393.803 359.262 393.871 359.31C393.939 359.358 393.996 359.419 394.04 359.49C400.65 370 408.76 379.21 418.37 387.11C424.44 392.09 431.68 396.32 440.11 399.79C453.67 405.37 468.03 408.27 483.18 408.48Z" fill="#231F20"/>
<path d="M657.67 496C657.01 495.77 656.69 494.52 656.71 492.25C656.98 460.08 657.03 427.9 656.88 395.72L656.98 390.14C656.98 390.034 657.022 389.932 657.097 389.857C657.172 389.782 657.274 389.74 657.38 389.74H657.76C657.832 389.74 657.9 389.768 657.951 389.819C658.002 389.87 658.03 389.938 658.03 390.01L657.67 496Z" fill="#231F20"/>
<path d="M655.8 397.44C651.22 418.55 641.54 436.95 626.75 452.63C640.6 436.43 650.29 418.03 655.8 397.44Z" fill="#231F20"/>
<path d="M316.91 413.24L316.86 413.7C316.834 414.006 316.9 414.313 317.05 414.58C321.91 423.19 327.31 431.33 333.24 439C345.77 455.18 360.86 468.51 378.51 479C404.78 494.62 435.15 502.92 465.76 504.99C475.34 505.64 482.75 505.9 488 505.78C494.2 505.64 501.07 505.31 508.61 504.78C518.6 504.07 529.73 502.3 542 499.46C555.88 496.25 569.14 491.6 581.77 485.51C589.69 481.7 597.52 477.07 605.26 471.62C608.63 469.24 612.67 465.38 616.81 462.7C614 465.41 611.58 467.53 609.56 469.07C596.97 478.64 583.69 486.11 569.74 491.48C547.77 499.93 525.02 504.69 501.5 505.74C495.95 505.99 488.39 506.08 478.84 506.01C470.04 505.94 462.5 505.53 456.22 504.8C440.61 502.96 426.42 499.9 413.63 495.63C370.43 481.18 337.96 453.96 316.23 413.96C316.197 413.901 316.178 413.835 316.173 413.767C316.169 413.7 316.18 413.632 316.205 413.569C316.229 413.506 316.268 413.449 316.317 413.402C316.367 413.356 316.426 413.321 316.49 413.3C316.62 413.25 316.76 413.23 316.91 413.24Z" fill="#231F20"/>
<path d="M152.97 539.98C152.33 539.67 152.5 539.4 153.47 539.17C153.94 539.06 154.47 539 155.04 539.01C159.75 539.02 164.4 539.07 168.97 539.15C169.271 539.156 169.561 539.043 169.779 538.837C169.996 538.631 170.122 538.348 170.13 538.05L170.52 524.99C170.94 528.02 171.08 532.19 170.93 537.5C170.89 539.08 170.16 539.88 168.75 539.9C163.5 539.99 158.24 540.01 152.97 539.98Z" fill="#F14C32"/>
<path d="M271.76 581.64C272.19 581.77 272.13 581.8 271.58 581.75C271.463 581.74 271.355 581.686 271.277 581.598C271.199 581.511 271.157 581.397 271.16 581.28L271.65 525.09C272.17 544.1 272.21 562.95 271.76 581.64Z" fill="#F14C32"/>
<path d="M402.46 539.65C402.5 539.5 402.57 539.38 402.68 539.29C402.77 539.22 402.89 539.18 403.06 539.18C411.77 539.13 420.36 539.12 428.81 539.15C429.158 539.153 429.493 539.019 429.743 538.778C429.993 538.537 430.14 538.208 430.15 537.86L430.54 525.01L430.99 537.84C430.999 538.077 430.961 538.313 430.876 538.535C430.791 538.757 430.662 538.959 430.497 539.13C430.332 539.301 430.133 539.437 429.914 539.53C429.694 539.622 429.458 539.67 429.22 539.67L402.46 539.65Z" fill="#F14C32"/>
<path d="M224.94 592.74C224.61 592.72 224.32 592.44 224.07 591.91C213.93 570.06 203.76 548.24 193.55 526.43C193.32 525.94 193.3 525.57 193.47 525.3L224.94 592.74Z" fill="#F14C32"/>
<path d="M387.8 525.07L387.73 596.03C386.97 596.08 386.62 596 386.68 595.79C386.9 595.04 387.01 594.28 387.01 593.5C387.06 571.42 387.06 549.34 387.03 527.25C387.03 525.7 387.29 524.98 387.8 525.07Z" fill="#F14C32"/>
<path d="M14.49 596.06C13.87 572.57 13.76 549.08 14.16 525.59C14.37 525.5 14.54 525.54 14.66 525.7C14.6925 525.738 14.7102 525.788 14.71 525.84L14.49 596.06Z" fill="#F14C32"/>
<path d="M114.95 537C115.22 538.77 114.79 539.65 113.66 539.65C104.84 539.66 96.07 539.67 87.35 539.66C87.243 539.66 87.1402 539.702 87.0636 539.777C86.987 539.851 86.9426 539.953 86.94 540.06L86.52 553.04L86.04 539.97C86.036 539.861 86.0542 539.753 86.0936 539.651C86.133 539.549 86.1928 539.456 86.2693 539.378C86.3459 539.299 86.4376 539.237 86.5391 539.195C86.6406 539.152 86.7498 539.13 86.86 539.13C95.61 539.1 104.47 539.12 113.45 539.21C114.28 539.22 114.78 538.49 114.95 537Z" fill="#F14C32"/>
<path d="M697.96 538.05L697.92 538.75C697.907 538.996 697.8 539.227 697.622 539.397C697.443 539.566 697.206 539.66 696.96 539.66H670.35C670.243 539.66 670.14 539.701 670.064 539.774C669.987 539.846 669.943 539.946 669.94 540.05L669.56 553.03L669.04 540.06C669.036 539.937 669.057 539.814 669.101 539.699C669.146 539.584 669.213 539.479 669.299 539.39C669.385 539.301 669.487 539.231 669.601 539.183C669.715 539.135 669.837 539.11 669.96 539.11C677.84 539.12 685.79 539.14 693.82 539.16C695.54 539.16 696.64 539.65 697.96 538.05Z" fill="#F14C32"/>
<path d="M45.92 544.37C44.05 541.85 42.15 540.43 40.22 540.11C37.53 539.66 33.76 539.67 28.89 540.13C28.36 539.45 28.81 539.08 30.25 539.01C33.17 538.88 36.08 538.98 38.99 539.31C42.46 539.72 44.77 541.4 45.92 544.37Z" fill="#F14C32"/>
<path d="M138.04 595.04L138 540.62C138 540.489 137.95 540.363 137.86 540.27C137.77 540.176 137.648 540.123 137.52 540.12L120.91 539.47L137.59 539.08C137.744 539.077 137.897 539.105 138.04 539.162C138.183 539.218 138.313 539.303 138.423 539.41C138.533 539.517 138.62 539.644 138.68 539.785C138.739 539.926 138.77 540.077 138.77 540.23V594.43C138.769 594.562 138.725 594.689 138.643 594.792C138.562 594.896 138.448 594.969 138.32 595C138.23 595.02 138.13 595.03 138.04 595.04Z" fill="#F14C32"/>
<path d="M469.38 540.83C465.34 539.92 461.1 539.65 456.65 540.03C456.476 540.043 456.313 540.122 456.194 540.252C456.075 540.382 456.009 540.553 456.01 540.73L456 556.78C455.29 556.95 454.95 556.52 454.99 555.49C455.18 550.27 455.21 545.14 455.09 540.1C455.084 539.817 455.189 539.543 455.382 539.337C455.575 539.131 455.84 539.01 456.12 539C459.77 538.86 463.31 539.03 466.73 539.5C467.83 539.65 468.71 540.1 469.38 540.83Z" fill="#F14C32"/>
<path d="M468.59 555.98C473.1 552.47 474.13 548.05 471.7 542.72C475.21 548.31 474.17 552.73 468.59 555.98Z" fill="#F14C32"/>
<path d="M349.31 545.45L353.47 549.22C351.24 548.67 349.85 547.42 349.31 545.45Z" fill="#F14C32"/>
<path d="M402.01 568.29C401.8 568.26 401.68 568.2 401.67 568.12C401.644 567.982 401.65 567.84 401.687 567.704C401.725 567.568 401.793 567.441 401.888 567.333C401.982 567.224 402.1 567.136 402.233 567.075C402.367 567.014 402.512 566.982 402.66 566.98C410.06 566.95 417.45 566.98 424.82 567.09C425.034 567.094 425.247 567.052 425.444 566.968C425.64 566.883 425.817 566.757 425.962 566.598C426.107 566.439 426.216 566.251 426.283 566.046C426.35 565.841 426.373 565.624 426.35 565.41C425.92 561.42 426.03 557.28 426.68 553.01L426.95 565.94C426.957 566.206 426.91 566.47 426.812 566.717C426.715 566.964 426.569 567.189 426.382 567.38C426.196 567.57 425.973 567.721 425.727 567.824C425.481 567.927 425.217 567.98 424.95 567.98H402.41C402.333 567.98 402.255 568.008 402.19 568.06C402.07 568.15 402.01 568.23 402.01 568.29Z" fill="#F14C32"/>
<path d="M456.1 564.68L456.06 595.4C456.061 595.462 456.048 595.523 456.023 595.58C455.997 595.636 455.96 595.687 455.914 595.727C455.867 595.768 455.812 595.799 455.753 595.816C455.694 595.834 455.631 595.839 455.57 595.83C455.54 595.82 455.38 595.84 455.08 595.89L455.06 563.53C455.058 563.443 455.082 563.357 455.128 563.283C455.174 563.209 455.241 563.149 455.321 563.112C455.4 563.074 455.49 563.059 455.578 563.07C455.666 563.08 455.75 563.115 455.82 563.17C456.16 563.46 456.25 563.96 456.1 564.68Z" fill="#F14C32"/>
<path d="M110.97 567.56L87.33 567.97C87.2336 567.973 87.1421 568.013 87.0748 568.082C87.0076 568.151 86.97 568.244 86.97 568.34L87.01 581.58C87.01 581.65 86.87 581.7 86.59 581.72C86.5284 581.724 86.4666 581.716 86.4084 581.696C86.3503 581.675 86.297 581.644 86.252 581.602C86.207 581.561 86.1711 581.511 86.1467 581.456C86.1223 581.4 86.1098 581.34 86.11 581.28V568.07C86.11 567.937 86.1365 567.805 86.188 567.683C86.2395 567.56 86.315 567.449 86.4099 567.356C86.5049 567.263 86.6175 567.189 86.7412 567.14C86.8648 567.091 86.997 567.067 87.13 567.07L110.97 567.56Z" fill="#F14C32"/>
<path d="M694.02 567.52L670.32 567.98C670.229 567.98 670.141 568.016 670.076 568.079C670.011 568.143 669.973 568.229 669.97 568.32L669.63 581.62L669.12 568.3C669.113 568.131 669.141 567.961 669.203 567.803C669.265 567.645 669.358 567.501 669.478 567.38C669.598 567.259 669.742 567.164 669.9 567.1C670.059 567.037 670.229 567.006 670.4 567.01L694.02 567.52Z" fill="#F14C32"/>
<path d="M713.67 577.29C711.46 579.65 708.87 581.48 705.9 582.78L713.67 577.29Z" fill="#F14C32"/>
<path d="M717.24 577.1C720.14 580.06 723.31 581.9 726.76 582.62C722.35 582.45 719.17 580.61 717.24 577.1Z" fill="#F14C32"/>
<path d="M430.6 596.02C429.99 591.43 429.9 586.86 430.31 582.32C430.312 582.287 430.324 582.256 430.344 582.231C430.364 582.206 430.39 582.188 430.42 582.18C430.45 582.17 430.49 582.15 430.52 582.14C430.77 582.12 430.9 582.24 430.91 582.5C431.2 587.03 431.09 591.54 430.6 596.02Z" fill="#F14C32"/>
<path d="M209.33 593.29C208.14 591.58 207.33 589.87 206.9 588.17C206.807 587.799 206.591 587.47 206.286 587.234C205.982 586.999 205.607 586.871 205.22 586.87C196.77 586.88 188.24 586.87 179.61 586.84C178.15 586.83 177.08 587.93 176.4 590.12C176.5 587.49 177.63 586.17 179.8 586.14C188.01 586.04 196.51 586.03 205.3 586.11C205.648 586.113 205.988 586.219 206.274 586.415C206.561 586.611 206.783 586.888 206.91 587.21L209.33 593.29Z" fill="#F14C32"/>
</svg>
